0.11m3min_grf.mot
version=1
nRows=12
nColumns 19
inDegrees=yes
endheader
time	1_ground_force_vx	1_ground_force_vy	1_ground_force_vz	1_ground_force_px	1_ground_force_py	1_ground_force_pz	1_ground_torque_x	1_ground_torque_y	1_ground_torque_z	2_ground_force_vx	2_ground_force_vy	2_ground_force_vz	2_ground_force_px	2_ground_force_py	2_ground_force_pz	2_ground_torque_x	2_ground_torque_y	2_ground_torque_z
            1.253500	           -9.446986	          513.274247	          -53.721493	           -0.291362	            0.006155	           -0.391832	           -0.021002	            1.141076	           -0.119430	           13.904186	          749.881766	           62.737120	           -0.302301	            0.005397	           -0.698954	           -0.007612	           -0.410529	           -0.034346
            1.254000	           -9.215331	          505.521067	          -53.342600	           -0.291681	            0.006154	           -0.391629	           -0.019946	            1.094175	           -0.115457	           14.691236	          739.391541	           61.713859	           -0.302244	            0.005397	           -0.698873	           -0.009315	           -0.468824	           -0.039131
            1.254500	           -8.387895	          496.867295	          -53.106615	           -0.291528	            0.006155	           -0.391873	           -0.021178	            1.254491	           -0.134084	           14.959698	          729.819549	           60.881814	           -0.302233	            0.005398	           -0.699139	           -0.009585	           -0.467589	           -0.039006
            1.255000	           -7.742578	          488.211324	          -52.365755	           -0.291519	            0.006155	           -0.392003	           -0.021281	            1.341862	           -0.143929	           15.136388	          719.695239	           59.907054	           -0.302298	            0.005397	           -0.698970	           -0.010384	           -0.493712	           -0.041096
            1.255500	           -7.465913	          481.901262	          -52.210068	           -0.291269	            0.006154	           -0.391718	           -0.021317	            1.375942	           -0.149072	           15.216019	          710.491689	           58.841763	           -0.302074	            0.005398	           -0.699100	           -0.009042	           -0.422210	           -0.034967
            1.256000	           -6.453433	          474.686308	          -51.188808	           -0.291161	            0.006153	           -0.391519	           -0.017932	            1.318965	           -0.142233	           15.536646	          699.446619	           58.004442	           -0.302333	            0.005396	           -0.698750	           -0.010911	           -0.491198	           -0.040735
            1.256500	           -6.908725	          467.472446	          -50.484894	           -0.291241	            0.006152	           -0.391345	           -0.015013	            1.015845	           -0.109707	           15.896687	          690.428332	           56.892760	           -0.302214	            0.005397	           -0.698892	           -0.010813	           -0.469644	           -0.038700
            1.257000	           -6.493144	          459.177749	          -49.925343	           -0.291246	            0.006153	           -0.391582	           -0.013086	            0.925385	           -0.100615	           16.307005	          680.488734	           56.012414	           -0.302061	            0.005397	           -0.698833	           -0.013822	           -0.576807	           -0.047478
            1.257500	           -5.940083	          450.522744	          -49.413540	           -0.291295	            0.006154	           -0.391737	           -0.012551	            0.951900	           -0.104405	           16.714501	          671.287038	           54.759271	           -0.301980	            0.005398	           -0.698915	           -0.014296	           -0.574175	           -0.046838
            1.258000	           -5.112619	          444.211669	          -48.984082	           -0.291295	            0.006153	           -0.391565	           -0.011960	            1.039153	           -0.114589	           16.796187	          661.530503	           53.832793	           -0.301952	            0.005398	           -0.698889	           -0.015295	           -0.602417	           -0.049022
            1.258500	           -4.789440	          436.098369	          -48.698675	           -0.290974	            0.006154	           -0.391624	           -0.012525	            1.140414	           -0.127349	           17.255388	          651.038256	           53.044312	           -0.302150	            0.005397	           -0.698794	           -0.015650	           -0.590467	           -0.048109
            1.259000	           -4.328672	          430.147558	          -48.220901	           -0.290640	            0.006152	           -0.391236	           -0.011105	            1.103498	           -0.123706	           17.147057	          642.017273	           52.214397	           -0.301928	            0.005398	           -0.698889	           -0.015954	           -0.597345	           -0.048581
